<?xml version="1.0" encoding="UTF-8"?>
<svg width="239px" height="239px" viewBox="0 0 239 239" version="1.1" xmlns="http://www.w3.org/2000/svg" xmlns:xlink="http://www.w3.org/1999/xlink">
    <!-- Generator: Sketch 46.2 (44496) - http://www.bohemiancoding.com/sketch -->
    <title>Group</title>
    <desc>Created with Sketch.</desc>
    <defs></defs>
    <g id="Page-1" stroke="none" stroke-width="1" fill="none" fill-rule="evenodd">
        <g id="Group" fill="#FFFFFF">
            <path d="M119.5,0 C126.127417,0 131.5,5.372583 131.5,12 L131.5,38 C131.5,44.627417 126.127417,50 119.5,50 C112.872583,50 107.5,44.627417 107.5,38 L107.5,12 C107.5,5.372583 112.872583,0 119.5,0 Z" id="pip12"></path>
            <path d="M59.75,16.0099642 C65.4895115,12.6962557 72.8285963,14.6627576 76.1423048,20.4022691 L89.1423048,42.9189296 C92.4560133,48.6584411 90.4895115,55.9975259 84.75,59.3112344 C79.0104885,62.6249429 71.6714037,60.6584411 68.3576952,54.9189296 L55.3576952,32.4022691 C52.0439867,26.6627576 54.0104885,19.3236727 59.75,16.0099642 Z" id="pip11"></path>
            <path d="M16.0099642,59.75 C19.3236727,54.0104885 26.6627576,52.0439867 32.4022691,55.3576952 L54.9189296,68.3576952 C60.6584411,71.6714037 62.6249429,79.0104885 59.3112344,84.75 C55.9975259,90.4895115 48.6584411,92.4560133 42.9189296,89.1423048 L20.4022691,76.1423048 C14.6627576,72.8285963 12.6962557,65.4895115 16.0099642,59.75 Z" id="pip10"></path>
            <path d="M50,119.5 C50,126.127417 44.627417,131.5 38,131.5 L12,131.5 C5.372583,131.5 0,126.127417 0,119.5 C0,112.872583 5.372583,107.5 12,107.5 L38,107.5 C44.627417,107.5 50,112.872583 50,119.5 Z" id="pip9"></path>
            <path d="M59.3112344,154.25 C62.6249429,159.989511 60.6584411,167.328596 54.9189296,170.642305 L32.4022691,183.642305 C26.6627576,186.956013 19.3236727,184.989511 16.0099642,179.25 C12.6962557,173.510489 14.6627576,166.171404 20.4022691,162.857695 L42.9189296,149.857695 C48.6584411,146.543987 55.9975259,148.510489 59.3112344,154.25 Z" id="pip8"></path>
            <path d="M84.75,179.688766 C90.4895115,183.002474 92.4560133,190.341559 89.1423048,196.08107 L76.1423048,218.597731 C72.8285963,224.337242 65.4895115,226.303744 59.75,222.990036 C54.0104885,219.676327 52.0439867,212.337242 55.3576952,206.597731 L68.3576952,184.08107 C71.6714037,178.341559 79.0104885,176.375057 84.75,179.688766 Z" id="pip7"></path>
            <path d="M119.5,189 C126.127417,189 131.5,194.372583 131.5,201 L131.5,227 C131.5,233.627417 126.127417,239 119.5,239 C112.872583,239 107.5,233.627417 107.5,227 L107.5,201 C107.5,194.372583 112.872583,189 119.5,189 Z" id="pip6"></path>
            <path d="M154.25,179.688766 C159.989511,176.375057 167.328596,178.341559 170.642305,184.08107 L183.642305,206.597731 C186.956013,212.337242 184.989511,219.676327 179.25,222.990036 C173.510489,226.303744 166.171404,224.337242 162.857695,218.597731 L149.857695,196.08107 C146.543987,190.341559 148.510489,183.002474 154.25,179.688766 Z" id="pip5"></path>
            <path d="M179.688766,154.25 C183.002474,148.510489 190.341559,146.543987 196.08107,149.857695 L218.597731,162.857695 C224.337242,166.171404 226.303744,173.510489 222.990036,179.25 C219.676327,184.989511 212.337242,186.956013 206.597731,183.642305 L184.08107,170.642305 C178.341559,167.328596 176.375057,159.989511 179.688766,154.25 Z" id="pip4"></path>
            <path d="M239,119.5 C239,126.127417 233.627417,131.5 227,131.5 L201,131.5 C194.372583,131.5 189,126.127417 189,119.5 C189,112.872583 194.372583,107.5 201,107.5 L227,107.5 C233.627417,107.5 239,112.872583 239,119.5 Z" id="pip3"></path>
            <path d="M222.990036,59.75 C226.303744,65.4895115 224.337242,72.8285963 218.597731,76.1423048 L196.08107,89.1423048 C190.341559,92.4560133 183.002474,90.4895115 179.688766,84.75 C176.375057,79.0104885 178.341559,71.6714037 184.08107,68.3576952 L206.597731,55.3576952 C212.337242,52.0439867 219.676327,54.0104885 222.990036,59.75 Z" id="pip2"></path>
            <path d="M179.25,16.0099642 C184.989511,19.3236727 186.956013,26.6627576 183.642305,32.4022691 L170.642305,54.9189296 C167.328596,60.6584411 159.989511,62.6249429 154.25,59.3112344 C148.510489,55.9975259 146.543987,48.6584411 149.857695,42.9189296 L162.857695,20.4022691 C166.171404,14.6627576 173.510489,12.6962557 179.25,16.0099642 Z" id="pip1"></path>
        </g>
    </g>
</svg>